<svg version="1.1" id="Layer_1" xmlns="http://www.w3.org/2000/svg" x="0" y="0" width="293.2" height="107.8" xml:space="preserve"><path d="M42.3 72.7L23.6 98.5c8.2 5.6 18.1 9 28.7 9.3V76c-3.7-.3-7.1-1.4-10-3.3z" fill="#48555c"/><path d="M52.2 31.8V0C41.6.3 31.7 3.7 23.5 9.3L42.2 35c3-1.8 6.4-2.9 10-3.2z" fill="#b2ad4b"/><path d="M84.2 9.3C76 3.7 66.1.3 55.5 0v31.8c3.6.3 7 1.4 10 3.2L84.2 9.3z" fill="#e3b23a"/><path d="M33.4 62.3L3.2 72.1c3.5 9.7 9.7 18.2 17.8 24.4l18.7-25.7c-2.8-2.3-4.9-5.2-6.3-8.5z" fill="#4e5c5a"/><path d="M39.6 37L20.9 11.3C12.8 17.5 6.6 26 3.1 35.7l30.2 9.8c1.4-3.3 3.6-6.2 6.3-8.5z" fill="#9e9540"/><path d="M31.8 53.9c0-1.8.2-3.5.6-5.2L2.1 38.8C.7 43.6 0 48.7 0 53.9S.8 64.2 2.2 69l30.2-9.8c-.4-1.7-.6-3.5-.6-5.3z" fill="#6a7b53"/><path d="M68.3 70.7L87 96.4c8-6.2 14.2-14.7 17.7-24.4l-30.2-9.8c-1.4 3.4-3.6 6.3-6.2 8.5z" fill="#d45741"/><path d="M55.6 76v31.8c10.6-.3 20.5-3.7 28.7-9.3L65.6 72.7c-3 1.8-6.4 3-10 3.3z" fill="#983428"/><path d="M105.7 38.8l-30.2 9.8c.4 1.7.6 3.5.6 5.3s-.2 3.5-.6 5.2l30.2 9.8c1.4-4.8 2.1-9.8 2.1-15 0-5.3-.7-10.3-2.1-15.1z" fill="#e7703d"/><path d="M74.4 45.4l30.2-9.8c-3.5-9.7-9.7-18.2-17.8-24.4L68.2 37c2.7 2.2 4.8 5.1 6.2 8.4z" fill="#f2a738"/><path d="M140.7 77.4c-6.4 0-9.2-4.3-9.2-9.3V30.2h6.8v37.5c0 2.6.9 3.9 3.6 3.9h3v5.8h-4.2zm8.2-40.3V30h7.2v7.2h-7.2v-.1zm.2 40.3V43.8h6.8v33.6h-6.8zm24 0c-6.3 0-9.2-4.5-9.2-9.4V49.5H160v-5.2h3.8V34.1h6.8v10.2h6.5v5.2h-6.5v18.2c0 2.5 1.2 3.9 3.7 3.9h2.8v5.8h-4zm50.1 0V56.9c0-5.2-3-7.5-6.8-7.5-3.6 0-7 2.3-7 7.2v20.8h-6.8V56.9c0-5.2-3-7.5-6.8-7.5s-7 2.3-7 7.5v20.5H182V43.8h6.6v3.4c2.3-2.5 5.6-3.8 9-3.8 4.2 0 7.4 1.7 9.6 4.9 2.7-3.3 6.1-4.9 10.5-4.9 3.4 0 6.5 1.1 8.5 3.1 2.6 2.5 3.6 5.7 3.6 9.5v21.5l-6.6-.1zm32.4 0V74c-2.3 2.5-5.6 3.8-9 3.8s-6.3-1.1-8.3-3.1c-2.6-2.5-3.4-5.7-3.4-9.5V43.8h6.8v20.5c0 5.2 3 7.5 6.8 7.5s7-2.3 7-7.5V43.8h6.8v33.6h-6.7zm23.6.4c-5.5 0-10.1-.9-14.1-4.8l4.4-4.4c2.7 2.8 6.4 3.5 9.7 3.5 4.1 0 7.4-1.5 7.4-4.6 0-2.3-1.3-3.7-4.5-4l-5.4-.5c-6.3-.5-9.9-3.4-9.9-9.3 0-6.6 5.6-10.3 12.7-10.3 5 0 9.3 1.1 12.5 3.8l-4.2 4.3c-2.1-1.8-5.1-2.5-8.3-2.5-4 0-6.1 1.8-6.1 4.3 0 2 1.1 3.5 4.6 3.8l5.3.5c6.3.5 10 3.5 10 9.5-.1 7-6.1 10.7-14.1 10.7z"/></svg>